# xmcd
#
# Track frame offsets:
#	150
#	12499
#	24459
#	35890
#	57176
#	70206
#	83973
#	93890
#	103301
#	114536
#	124635
#	134879
#	149479
#	162088
#	173884
#
# Disc length: 2507 seconds
#
# Revision: 1
# Processed by: cddbd v1.5.2PL0 Copyright (c) Steve Scherf et al.
# Submitted via: audiograbber 1.83.01
#
DISCID=d909c90f
DTITLE=Various Artist - Hits für unterwegs - Country CD1
DYEAR=2011
DGENRE=Country
TTITLE0=Johnny Cash - I Walk The Line
TTITLE1=Tammy Wynette - Stand By Your Man (New rec)
TTITLE2=Don Gibson - Oh Lonesome Me (New rec)
TTITLE3=John Olivia Newton - Banks Of The Ohio
TTITLE4=Hank Williams - Jambalaya (On The Bayou)
TTITLE5=Anne Murray - Last Thing On My Mind
TTITLE6=Willie Nelson - Healing Hands Of Time
TTITLE7=Mickey Gilley - Lotta Lovin'
TTITLE8=Patsy Cline - Just Out Of Reach
TTITLE9=Porter Wagoner - Green Green Grass Of Home
TTITLE10=Dave Dudley - Seven Lonely Days
TTITLE11=Lee Hazlewood - These Boots Are Made For Walking
TTITLE12=Billie Jo Spears - '57 Chevrolet
TTITLE13="Tennessee" Ernie Ford - Sixteen Tons
TTITLE14=Freddy Fender - Wasted Days And Wasted Nights (New rec)
EXTD=
EXTT0=
EXTT1=
EXTT2=
EXTT3=
EXTT4=
EXTT5=
EXTT6=
EXTT7=
EXTT8=
EXTT9=
EXTT10=
EXTT11=
EXTT12=
EXTT13=
EXTT14=
PLAYORDER=
